<svg version="1.1" id="Layer_1" xmlns="http://www.w3.org/2000/svg" xmlns:xlink="http://www.w3.org/1999/xlink" x="0px" y="0px"
	 width="100%" viewBox="0 0 180 180" enable-background="new 0 0 180 180" xml:space="preserve">
<path fill="#F5F3EF" opacity="1.000000" stroke="none" 
	d="
M127.000000,181.000000 
	C84.666672,181.000000 42.833340,181.000000 1.000006,181.000000 
	C1.000004,121.000008 1.000004,61.000011 1.000002,1.000014 
	C60.999989,1.000009 120.999977,1.000009 180.999969,1.000005 
	C180.999985,60.999985 180.999985,120.999969 181.000000,180.999969 
	C163.166672,181.000000 145.333328,181.000000 127.000000,181.000000 
M79.908180,126.339355 
	C85.098907,133.265366 92.050003,134.655579 98.875084,129.424515 
	C103.330040,126.010025 107.111618,121.712318 111.158447,117.772858 
	C112.349075,116.613823 113.415428,115.327110 115.226250,113.347191 
	C115.112839,115.331970 115.076057,115.993782 115.037041,116.655472 
	C114.731522,121.837601 113.943695,127.388550 119.313698,130.568604 
	C124.813530,133.825531 129.500793,130.317917 134.159988,127.795326 
	C134.741577,127.480431 135.304276,127.095490 135.795074,126.653458 
	C141.727402,121.310623 147.656723,115.964279 153.559692,110.589058 
	C155.922470,108.437538 157.970718,105.919968 155.119736,102.951408 
	C151.924057,99.623909 149.564346,102.355988 147.170624,104.565102 
	C141.546234,109.755699 135.900940,114.928764 130.109818,119.930283 
	C128.500397,121.320259 126.351151,122.085197 123.312340,123.765823 
	C123.855408,119.463516 123.794983,116.407623 124.671875,113.649750 
	C127.437492,104.951797 130.532791,96.357964 133.548386,87.740593 
	C134.499588,85.022453 134.236496,82.765472 131.381195,81.480202 
	C128.443542,80.157867 127.008209,81.824142 125.398643,84.170639 
	C118.641380,94.021652 111.857857,103.871216 104.617882,113.365913 
	C101.954597,116.858612 98.194633,119.642921 94.545273,122.192734 
	C93.091499,123.208488 90.196785,123.455223 88.682762,122.664467 
	C87.559509,122.077820 86.940147,119.122391 87.265213,117.449226 
	C88.019363,113.567574 89.356544,109.779137 90.686058,106.034096 
	C92.628677,100.562042 94.970345,95.225060 96.747353,89.703522 
	C97.663712,86.856186 97.155609,83.462105 93.739395,82.834122 
	C91.616798,82.443939 88.419579,83.377541 86.910103,84.906792 
	C76.973228,94.973915 67.445435,105.443329 57.601730,115.604752 
	C54.377964,118.932571 50.702938,121.850655 47.054920,124.728783 
	C45.165627,126.219353 43.195808,126.484932 41.878387,123.585411 
	C39.261070,117.824951 41.892090,103.002625 46.050346,98.047607 
	C56.090660,86.083458 66.295525,74.216400 75.566444,61.669144 
	C78.947952,57.092609 80.408752,50.825169 81.733292,45.095108 
	C82.630913,41.211945 81.549629,36.243752 77.306488,34.948715 
	C73.928032,33.917591 69.060837,34.227028 66.152779,36.032459 
	C61.936287,38.650219 58.296886,42.749714 55.456139,46.927616 
	C46.961296,59.421040 41.737083,73.478775 37.864925,87.974869 
	C36.266037,93.960602 33.793640,98.987556 29.147701,103.147881 
	C27.490969,104.631447 25.504086,107.586334 25.986971,109.156357 
	C26.599081,111.146545 29.574465,112.409882 31.972868,114.343056 
	C32.153885,116.421471 32.198299,119.434517 32.709614,122.366135 
	C34.847466,134.623428 43.210354,138.419373 53.147835,131.020432 
	C59.365749,126.390877 64.614014,120.450623 70.243645,115.042580 
	C73.391502,112.018623 76.429626,108.880440 79.533157,105.777794 
	C79.533157,112.819916 79.533157,119.243462 79.908180,126.339355 
z"/>
<path fill="#2E2E2E" opacity="1.000000" stroke="none" 
	d="
M79.720673,126.003174 
	C79.533157,119.243462 79.533157,112.819916 79.533157,105.777794 
	C76.429626,108.880440 73.391502,112.018623 70.243645,115.042580 
	C64.614014,120.450623 59.365749,126.390877 53.147835,131.020432 
	C43.210354,138.419373 34.847466,134.623428 32.709614,122.366135 
	C32.198299,119.434517 32.153885,116.421471 31.972868,114.343056 
	C29.574465,112.409882 26.599081,111.146545 25.986971,109.156357 
	C25.504086,107.586334 27.490969,104.631447 29.147701,103.147881 
	C33.793640,98.987556 36.266037,93.960602 37.864925,87.974869 
	C41.737083,73.478775 46.961296,59.421040 55.456139,46.927616 
	C58.296886,42.749714 61.936287,38.650219 66.152779,36.032459 
	C69.060837,34.227028 73.928032,33.917591 77.306488,34.948715 
	C81.549629,36.243752 82.630913,41.211945 81.733292,45.095108 
	C80.408752,50.825169 78.947952,57.092609 75.566444,61.669144 
	C66.295525,74.216400 56.090660,86.083458 46.050346,98.047607 
	C41.892090,103.002625 39.261070,117.824951 41.878387,123.585411 
	C43.195808,126.484932 45.165627,126.219353 47.054920,124.728783 
	C50.702938,121.850655 54.377964,118.932571 57.601730,115.604752 
	C67.445435,105.443329 76.973228,94.973915 86.910103,84.906792 
	C88.419579,83.377541 91.616798,82.443939 93.739395,82.834122 
	C97.155609,83.462105 97.663712,86.856186 96.747353,89.703522 
	C94.970345,95.225060 92.628677,100.562042 90.686058,106.034096 
	C89.356544,109.779137 88.019363,113.567574 87.265213,117.449226 
	C86.940147,119.122391 87.559509,122.077820 88.682762,122.664467 
	C90.196785,123.455223 93.091499,123.208488 94.545273,122.192734 
	C98.194633,119.642921 101.954597,116.858612 104.617882,113.365913 
	C111.857857,103.871216 118.641380,94.021652 125.398643,84.170639 
	C127.008209,81.824142 128.443542,80.157867 131.381195,81.480202 
	C134.236496,82.765472 134.499588,85.022453 133.548386,87.740593 
	C130.532791,96.357964 127.437492,104.951797 124.671875,113.649750 
	C123.794983,116.407623 123.855408,119.463516 123.312340,123.765823 
	C126.351151,122.085197 128.500397,121.320259 130.109818,119.930283 
	C135.900940,114.928764 141.546234,109.755699 147.170624,104.565102 
	C149.564346,102.355988 151.924057,99.623909 155.119736,102.951408 
	C157.970718,105.919968 155.922470,108.437538 153.559692,110.589058 
	C147.656723,115.964279 141.727402,121.310623 135.795074,126.653458 
	C135.304276,127.095490 134.741577,127.480431 134.159988,127.795326 
	C129.500793,130.317917 124.813530,133.825531 119.313698,130.568604 
	C113.943695,127.388550 114.731522,121.837601 115.037041,116.655472 
	C115.076057,115.993782 115.112839,115.331970 115.226250,113.347191 
	C113.415428,115.327110 112.349075,116.613823 111.158447,117.772858 
	C107.111618,121.712318 103.330040,126.010025 98.875084,129.424515 
	C92.050003,134.655579 85.098907,133.265366 79.720673,126.003174 
M50.838749,79.960808 
	C57.045856,71.782684 63.579735,63.824554 69.304153,55.321484 
	C71.695961,51.768669 72.367714,47.057888 73.821533,42.873604 
	C73.068207,42.541687 72.314880,42.209770 71.561554,41.877853 
	C60.129345,51.927151 55.237057,65.994446 49.219952,79.973068 
	C49.253277,80.222519 49.286598,80.471962 49.319927,80.721413 
	C49.619347,80.554077 49.918762,80.386749 50.838749,79.960808 
M81.000000,105.500000 
	C80.800003,105.366661 80.599998,105.233330 80.400002,105.099998 
	C80.433334,105.400002 80.466667,105.699997 81.000000,105.500000 
z"/>
<path fill="#EEECE8" opacity="1.000000" stroke="none" 
	d="
M49.621468,79.617355 
	C55.237057,65.994446 60.129345,51.927151 71.561554,41.877853 
	C72.314880,42.209770 73.068207,42.541687 73.821533,42.873604 
	C72.367714,47.057888 71.695961,51.768669 69.304153,55.321484 
	C63.579735,63.824554 57.045856,71.782684 50.379295,79.939583 
	C49.919846,79.918358 49.621468,79.617355 49.621468,79.617355 
z"/>
<path fill="#EEECE8" opacity="1.000000" stroke="none" 
	d="
M50.069016,80.068886 
	C49.918762,80.386749 49.619347,80.554077 49.319923,80.721413 
	C49.286598,80.471962 49.253277,80.222519 49.420708,79.795212 
	C49.621468,79.617355 49.919846,79.918358 50.069016,80.068886 
z"/>
<path fill="#F5F3EF" opacity="1.000000" stroke="none" 
	d="
M80.750000,105.750000 
	C80.466667,105.699997 80.433334,105.400002 80.400002,105.099998 
	C80.599998,105.233330 80.800003,105.366661 80.750000,105.750000 
z"/>
</svg>