<svg xmlns="http://www.w3.org/2000/svg" xmlns:xlink="http://www.w3.org/1999/xlink" width="180" zoomAndPan="magnify" viewBox="0 0 135 135.000003" height="180" preserveAspectRatio="xMidYMid meet" version="1.0"><defs><g/></defs><g fill="#282828" fill-opacity="1"><g transform="translate(6.812246, 108.735299)"><g><path d="M 51.46875 -85.078125 C 51.46875 -81.410156 50.347656 -77.316406 48.109375 -72.796875 C 45.878906 -68.285156 42.878906 -63.5 39.109375 -58.4375 C 35.347656 -53.382812 31.109375 -48.226562 26.390625 -42.96875 C 21.679688 -37.71875 16.851562 -32.566406 11.90625 -27.515625 C 11.207031 -24.640625 10.707031 -21.863281 10.40625 -19.1875 C 10.113281 -16.507812 9.96875 -14.082031 9.96875 -11.90625 C 9.96875 -11.40625 10.015625 -10.382812 10.109375 -8.84375 C 10.210938 -7.3125 10.484375 -5.898438 10.921875 -4.609375 C 11.367188 -3.316406 12.140625 -2.671875 13.234375 -2.671875 C 14.222656 -2.671875 15.609375 -3.289062 17.390625 -4.53125 C 19.179688 -5.769531 21.09375 -7.359375 23.125 -9.296875 C 25.15625 -11.234375 27.113281 -13.191406 29 -15.171875 C 30.882812 -17.148438 32.546875 -18.929688 33.984375 -20.515625 C 35.421875 -22.109375 36.390625 -23.15625 36.890625 -23.65625 L 39.265625 -26.03125 C 40.253906 -27.019531 41.296875 -27.515625 42.390625 -27.515625 C 43.578125 -27.515625 44.640625 -27.039062 45.578125 -26.09375 C 46.523438 -25.15625 47 -24.09375 47 -22.90625 C 47 -21.8125 46.503906 -20.769531 45.515625 -19.78125 L 43.140625 -17.40625 C 41.546875 -15.8125 39.582031 -13.703125 37.25 -11.078125 C 34.925781 -8.453125 32.398438 -5.820312 29.671875 -3.1875 C 26.941406 -0.5625 24.164062 1.664062 21.34375 3.5 C 18.519531 5.332031 15.816406 6.25 13.234375 6.25 C 9.960938 6.25 7.429688 5.28125 5.640625 3.34375 C 3.859375 1.414062 2.644531 -0.957031 2 -3.78125 C 1.363281 -6.613281 1.046875 -9.320312 1.046875 -11.90625 C 1.046875 -12.59375 1.066406 -13.359375 1.109375 -14.203125 C 1.160156 -15.046875 1.238281 -15.960938 1.34375 -16.953125 C 0.945312 -16.660156 0.546875 -16.414062 0.140625 -16.21875 C -0.253906 -16.019531 -0.695312 -15.921875 -1.1875 -15.921875 C -2.375 -15.921875 -3.4375 -16.390625 -4.375 -17.328125 C -5.320312 -18.265625 -5.796875 -19.332031 -5.796875 -20.53125 C -5.796875 -21.613281 -5.300781 -22.65625 -4.3125 -23.65625 L -1.9375 -26.03125 C -1.039062 -26.914062 -0.0703125 -27.90625 0.96875 -29 C 2.007812 -30.09375 3.175781 -31.285156 4.46875 -32.578125 C 5.75 -37.734375 7.332031 -43.234375 9.21875 -49.078125 C 11.101562 -54.929688 13.257812 -60.632812 15.6875 -66.1875 C 18.113281 -71.738281 20.738281 -76.796875 23.5625 -81.359375 C 26.394531 -85.921875 29.394531 -89.539062 32.5625 -92.21875 C 35.738281 -94.894531 39.015625 -96.234375 42.390625 -96.234375 C 45.859375 -96.234375 48.238281 -95.09375 49.53125 -92.8125 C 50.820312 -90.53125 51.46875 -87.953125 51.46875 -85.078125 Z M 42.53125 -85.078125 C 42.53125 -85.472656 42.53125 -85.84375 42.53125 -86.1875 C 42.53125 -86.539062 42.484375 -86.863281 42.390625 -87.15625 L 42.234375 -87.609375 C 40.554688 -87.609375 38.695312 -86.414062 36.65625 -84.03125 C 34.625 -81.65625 32.566406 -78.628906 30.484375 -74.953125 C 28.398438 -71.285156 26.441406 -67.492188 24.609375 -63.578125 C 22.773438 -59.660156 21.210938 -56.113281 19.921875 -52.9375 C 18.640625 -49.769531 17.75 -47.492188 17.25 -46.109375 C 21.414062 -50.671875 25.429688 -55.351562 29.296875 -60.15625 C 33.160156 -64.96875 36.332031 -69.554688 38.8125 -73.921875 C 41.289062 -78.285156 42.53125 -82.003906 42.53125 -85.078125 Z M 42.53125 -85.078125 "/></g></g></g><g fill="#282828" fill-opacity="1"><g transform="translate(48.008412, 108.735299)"><g><path d="M 85.96875 -22.90625 C 85.96875 -21.8125 85.472656 -20.769531 84.484375 -19.78125 L 82.09375 -17.40625 C 80.613281 -15.914062 78.707031 -14.03125 76.375 -11.75 C 74.039062 -9.46875 71.507812 -7.160156 68.78125 -4.828125 C 66.0625 -2.503906 63.285156 -0.578125 60.453125 0.953125 C 57.628906 2.492188 55.03125 3.265625 52.65625 3.265625 C 49.28125 3.265625 46.921875 2.078125 45.578125 -0.296875 C 44.242188 -2.671875 43.578125 -5.25 43.578125 -8.03125 C 43.578125 -10.207031 43.972656 -12.984375 44.765625 -16.359375 C 41.691406 -12.785156 38.691406 -9.460938 35.765625 -6.390625 C 32.847656 -3.316406 30.046875 -0.816406 27.359375 1.109375 C 24.679688 3.046875 22.054688 4.015625 19.484375 4.015625 C 15.515625 4.015625 12.363281 2.75 10.03125 0.21875 C 7.707031 -2.300781 6.546875 -5.300781 6.546875 -8.78125 C 6.546875 -11.351562 6.96875 -14.148438 7.8125 -17.171875 C 8.65625 -20.203125 9.671875 -23.253906 10.859375 -26.328125 C 9.960938 -25.429688 8.992188 -24.460938 7.953125 -23.421875 C 6.910156 -22.378906 5.695312 -21.164062 4.3125 -19.78125 L 1.9375 -17.40625 C 0.945312 -16.414062 -0.09375 -15.921875 -1.1875 -15.921875 C -2.375 -15.921875 -3.4375 -16.390625 -4.375 -17.328125 C -5.320312 -18.265625 -5.796875 -19.332031 -5.796875 -20.53125 C -5.796875 -21.613281 -5.300781 -22.65625 -4.3125 -23.65625 L -1.9375 -26.03125 C 2.625 -30.59375 5.96875 -33.988281 8.09375 -36.21875 C 10.226562 -38.445312 11.992188 -40.351562 13.390625 -41.9375 C 14.273438 -43.03125 15.164062 -44.144531 16.0625 -45.28125 C 16.957031 -46.425781 18.195312 -47 19.78125 -47 C 20.875 -47 22.113281 -46.648438 23.5 -45.953125 C 24.882812 -45.265625 25.578125 -43.828125 25.578125 -41.640625 C 25.578125 -39.660156 25.054688 -37.332031 24.015625 -34.65625 C 22.972656 -31.976562 21.804688 -29.148438 20.515625 -26.171875 C 19.234375 -23.203125 18.070312 -20.203125 17.03125 -17.171875 C 15.988281 -14.148438 15.46875 -11.351562 15.46875 -8.78125 C 15.46875 -6.195312 16.804688 -4.90625 19.484375 -4.90625 C 21.066406 -4.90625 23.097656 -5.867188 25.578125 -7.796875 C 28.054688 -9.734375 30.707031 -12.238281 33.53125 -15.3125 C 36.363281 -18.394531 39.117188 -21.71875 41.796875 -25.28125 C 44.472656 -28.851562 46.898438 -32.273438 49.078125 -35.546875 C 51.265625 -38.816406 52.898438 -41.59375 53.984375 -43.875 C 54.285156 -44.46875 54.5625 -45.0625 54.8125 -45.65625 C 55.0625 -46.25 55.382812 -46.75 55.78125 -47.15625 C 56.46875 -47.84375 57.40625 -48.1875 58.59375 -48.1875 C 59.789062 -48.1875 60.859375 -47.789062 61.796875 -47 C 62.742188 -46.207031 63.21875 -45.164062 63.21875 -43.875 C 63.21875 -43.175781 63.09375 -42.53125 62.84375 -41.9375 C 62.59375 -41.34375 62.367188 -40.75 62.171875 -40.15625 C 59.585938 -33.507812 57.328125 -27.3125 55.390625 -21.5625 C 53.460938 -15.8125 52.5 -11.300781 52.5 -8.03125 C 52.5 -6.34375 52.847656 -5.5 53.546875 -5.5 C 53.835938 -5.5 54.484375 -5.75 55.484375 -6.25 C 57.066406 -7.039062 58.898438 -8.28125 60.984375 -9.96875 C 63.066406 -11.65625 65.144531 -13.460938 67.21875 -15.390625 C 69.300781 -17.328125 71.132812 -19.0625 72.71875 -20.59375 C 74.3125 -22.132812 75.359375 -23.15625 75.859375 -23.65625 L 78.234375 -26.03125 C 79.222656 -27.019531 80.265625 -27.515625 81.359375 -27.515625 C 82.546875 -27.515625 83.609375 -27.039062 84.546875 -26.09375 C 85.492188 -25.15625 85.96875 -24.09375 85.96875 -22.90625 Z M 85.96875 -22.90625 "/></g></g></g></svg>